<?xml version="1.0" encoding="UTF-8"?>
<svg id="Layer_1" xmlns="http://www.w3.org/2000/svg" version="1.1" viewBox="0 0 214 228">
  <!-- Generator: Adobe Illustrator 29.8.1, SVG Export Plug-In . SVG Version: 2.1.1 Build 2)  -->
  <defs>
    <style>
      .st0 {
        fill: #fff;
      }

      .st1 {
        fill: red;
      }

      .st2 {
        fill: #0090e2;
      }
    </style>
  </defs>
  <path class="st0" d="M133.91,3.8l-63.01,63-4.08,4.08L3.81,133.9c-5.07,5.07-5.07,13.32,0,18.39l57.9,57.9c5.07,5.07,13.32,5.07,18.39,0l63.01-63,4.08-4.08,63.01-63c5.07-5.07,5.07-13.32,0-18.39L152.3,3.8c-5.07-5.07-13.32-5.07-18.39,0Z"/>
  <path class="st1" d="M137.99,7.9l-63.01,63,68.12,68.12,63.01-63c2.82-2.82,2.82-7.4,0-10.22L148.21,7.9c-2.82-2.82-7.4-2.82-10.22,0ZM159.95,70.89c0,4.65-1.89,8.86-4.94,11.9-3.05,3.05-7.25,4.94-11.9,4.94s-8.86-1.91-11.9-4.94-4.94-7.25-4.94-11.9,1.89-8.84,4.93-11.9c3.05-3.05,7.25-4.94,11.92-4.94s8.84,1.89,11.9,4.94c3.06,3.06,4.94,7.25,4.94,11.9Z"/>
  <path class="st2" d="M7.9,137.99c-2.82,2.82-2.82,7.4,0,10.22l57.9,57.9c2.82,2.82,7.4,2.82,10.22,0l63.01-63-68.12-68.12L7.9,137.99ZM63.89,143.09c0,4.65-1.89,8.86-4.94,11.9-3.05,3.05-7.25,4.94-11.9,4.94s-8.86-1.91-11.9-4.94c-3.05-3.05-4.94-7.25-4.94-11.9s1.89-8.84,4.93-11.9c3.05-3.05,7.25-4.94,11.92-4.94s8.84,1.89,11.9,4.94c3.03,3.03,4.94,7.25,4.94,11.9ZM111.59,143.06c0,4.65-1.89,8.86-4.94,11.9-3.05,3.05-7.25,4.94-11.9,4.94s-8.86-1.91-11.9-4.94-4.94-7.25-4.94-11.9,1.89-8.84,4.93-11.9c3.05-3.05,7.25-4.94,11.92-4.94s8.84,1.89,11.9,4.94,4.94,7.25,4.94,11.9Z"/>
  <path class="st0" d="M94.98,201.32c-2.26,0-4.17,1.76-4.17,4.15s1.91,4.17,4.17,4.17,4.15-1.76,4.15-4.17-1.91-4.15-4.15-4.15ZM94.98,208.97c-1.9,0-3.38-1.47-3.38-3.5s1.47-3.47,3.38-3.47,3.35,1.49,3.35,3.47-1.47,3.5-3.35,3.5ZM96.88,204.45c0-.94-.55-1.37-1.68-1.37h-1.82v4.8h.73v-2.09h.82l1.26,2.09h.8l-1.35-2.11c.71-.09,1.24-.46,1.24-1.32h0ZM94.11,205.19v-1.5h.98c.83,0,1.05.26,1.05.72,0,.53-.29.78-1.18.78h-.86Z"/>
</svg>